<svg width="24" height="26" viewBox="0 0 24 26" fill="none" xmlns="http://www.w3.org/2000/svg">
<path d="M9.39069 26C9.10297 25.8982 8.80031 25.924 8.50512 25.9064C6.25691 25.7733 4.02838 25.4863 1.81953 25.0479C0.85931 24.8572 0.243139 24.2234 0.118955 23.2489C-0.153164 21.1086 0.0212366 19.0165 0.853881 17.0017C1.26036 16.0184 1.94914 15.3324 2.94397 14.9551C4.43486 14.3905 5.70317 13.4703 6.92465 12.4721C7.0278 12.3879 6.9993 12.3296 6.94637 12.242C6.23994 11.0694 5.80428 9.79702 5.60613 8.44796C5.31433 6.46305 5.43852 4.52836 6.47813 2.74906C7.4336 1.11363 8.89531 0.248416 10.7635 0.0489072C12.0318 -0.0868132 13.2655 0.0461928 14.4191 0.621647C15.9887 1.40408 16.9225 2.71921 17.3514 4.37567C18.0592 7.10908 17.6065 9.70202 16.25 12.1524C16.1475 12.337 16.153 12.4185 16.3213 12.5549C17.5672 13.5646 18.8769 14.4583 20.3895 15.0379C21.256 15.3697 21.8641 16.0123 22.2332 16.8626C22.9675 18.5544 23.2247 20.3289 23.1249 22.1618C23.1025 22.5758 23.0774 22.989 23.0048 23.3982C22.8616 24.2071 22.2373 24.8688 21.4284 25.0303C19.1958 25.4761 16.9429 25.772 14.6689 25.9057C14.3309 25.9254 13.9869 25.8982 13.6557 26C12.2347 26 10.8124 26 9.39069 26ZM11.5751 24.3754C12.5733 24.3747 13.5709 24.3381 14.5677 24.2811C16.7318 24.1562 18.8742 23.8733 21.0009 23.4607C21.2839 23.4057 21.3972 23.2734 21.425 22.9755C21.4528 22.6721 21.4861 22.3695 21.5024 22.0655C21.5858 20.4993 21.3721 18.9805 20.7532 17.5304C20.5523 17.0587 20.2185 16.7004 19.738 16.5206C18.0931 15.9065 16.6694 14.934 15.3285 13.8272C15.1676 13.6942 15.0835 13.682 14.9254 13.8381C13.0986 15.6384 10.0883 15.6547 8.23911 13.8517C8.06063 13.6779 7.97106 13.7044 7.79869 13.8462C6.48831 14.9218 5.10464 15.8834 3.50111 16.4833C2.94465 16.6916 2.57617 17.0811 2.35291 17.6261C1.63359 19.3775 1.50127 21.1955 1.73063 23.0542C1.75981 23.2931 1.91318 23.4172 2.14933 23.4627C5.26208 24.068 8.40401 24.3747 11.5751 24.3754ZM7.10448 6.82135C7.10923 7.54271 7.19202 8.25524 7.36167 8.95623C7.69758 10.3413 8.26082 11.6102 9.29976 12.6227C10.1928 13.4934 11.2636 13.7567 12.4553 13.4472C13.3856 13.2056 14.0466 12.5623 14.5582 11.7853C15.8903 9.76513 16.3124 7.5461 15.8734 5.17439C15.6834 4.14766 15.2375 3.23223 14.4137 2.54684C13.5105 1.79495 12.439 1.5968 11.3023 1.63209C9.49859 1.68773 8.13935 2.64727 7.51979 4.30985C7.21849 5.11806 7.1038 5.96089 7.10448 6.82135Z" fill="#C4C4C4"/>
</svg>
