<svg width="24" height="26" viewBox="0 0 24 26" fill="none" xmlns="http://www.w3.org/2000/svg">
<path d="M9.87809 25.0404C9.75382 24.9528 9.60266 24.965 9.46421 24.9318C7.66537 24.4983 6.3533 22.9245 6.26622 21.0758C6.25791 20.8958 6.19578 20.8684 6.03727 20.8689C4.66063 20.8742 3.28349 20.8752 1.90636 20.8708C0.926465 20.8674 0.186286 20.2657 0.0282698 19.3225C-0.0808247 18.6723 0.12758 18.1097 0.623153 17.6758C1.57272 16.8431 2.29039 15.8534 2.71796 14.6607C2.99535 13.8873 3.13037 13.0889 3.12988 12.267C3.12939 11.3297 3.12841 10.3928 3.12988 9.45551C3.13575 5.89991 5.53094 2.95338 9.01511 2.22739C9.98376 2.02535 10.9558 2.04736 11.9259 2.24549C12.0898 2.27925 12.0737 2.34236 12.0248 2.45879C11.6163 3.43575 11.4279 4.45576 11.4886 5.51148C11.6393 8.13806 12.8613 10.1311 15.0941 11.5063C15.8504 11.972 16.6806 12.2558 17.5543 12.4045C17.7094 12.4309 17.7461 12.4842 17.7544 12.6334C17.8635 14.5614 18.6218 16.1876 20.0493 17.4903C20.425 17.8333 20.7494 18.1968 20.8311 18.7193C21.014 19.8895 20.1824 20.862 18.9794 20.8698C17.6517 20.8786 16.3235 20.8718 14.9953 20.8718C14.6166 20.8718 14.6166 20.8718 14.5824 21.2544C14.4283 22.9642 13.2272 24.4166 11.5801 24.8819C11.3726 24.9406 11.1623 24.9875 10.9534 25.0399C10.5953 25.0404 10.2367 25.0404 9.87809 25.0404Z" fill="#FEC007"/>
<path d="M19.3649 0C19.6296 0.0626193 19.8957 0.1179 20.1579 0.189325C22.4885 0.824813 24.1176 3.04242 23.9933 5.40385C23.8613 7.9096 22.0942 9.93738 19.6756 10.3581C16.7647 10.8644 14.0002 8.8391 13.6049 5.91018C13.2336 3.16129 15.0995 0.592437 17.8298 0.0870799C17.9183 0.0709359 18.0264 0.089526 18.0934 0C18.5171 0 18.9408 0 19.3649 0Z" fill="#F34336"/>
</svg>
