<svg width="20" height="20" viewBox="0 0 20 20" fill="none" xmlns="http://www.w3.org/2000/svg">
<path d="M0 6.75758C0 6.31303 0 5.86847 0 5.42392C0.0760751 5.33166 0.0556647 5.21609 0.0732919 5.11078C0.367387 3.32697 1.20421 1.87681 2.73407 0.890779C4.15537 -0.0253551 5.68152 -0.282581 7.29394 0.343708C8.33208 0.747255 9.16984 1.42946 9.8675 2.29061C9.97234 2.42016 10.0141 2.4127 10.1124 2.28688C10.4186 1.89452 10.7748 1.54969 11.1654 1.24214C12.1229 0.487233 13.1898 0.0072641 14.4264 0.0184478C15.8069 0.0305635 17.0028 0.550607 18.015 1.47699C19.9512 3.24868 20.544 6.20678 19.4687 8.66441C18.9028 9.95799 18.1467 11.1369 17.2876 12.2507C15.2521 14.89 12.7695 17.0485 10.0967 19.0047C9.99646 19.0783 9.94079 19.0466 9.86286 18.9889C8.33487 17.8724 6.8681 16.6822 5.50617 15.3644C3.85849 13.7707 2.37688 12.0419 1.23112 10.0409C0.757041 9.21334 0.324711 8.36618 0.133595 7.41649C0.0890636 7.19747 0.0964855 6.96634 0 6.75758Z" fill="#C3C3C3"/>
</svg>
