<svg width="27" height="26" viewBox="0 0 27 26" fill="none" xmlns="http://www.w3.org/2000/svg">
<path d="M12.5446 0C12.8157 0 13.0858 0 13.357 0C13.3654 0.0137159 13.3717 0.0379824 13.3812 0.0390375C13.9446 0.110782 14.3899 0.396705 14.7824 0.78919C18.2641 4.27302 21.7469 7.75579 25.2307 11.2375C25.581 11.5867 25.8236 11.9919 25.9418 12.4719C25.9524 12.5163 25.9291 12.5785 26.0019 12.5943C26.0019 12.8824 26.0019 13.1693 26.0019 13.4574C25.946 13.4648 25.9481 13.5122 25.9355 13.5502C25.5219 14.8089 24.7464 15.386 23.4402 15.385C23.2419 15.385 23.2081 15.4441 23.2092 15.6255C23.2155 18.1049 23.2145 20.5833 23.2134 23.0627C23.2123 24.7983 22.0159 25.9979 20.2856 25.9989C18.9995 26 17.7133 25.9989 16.4272 25.9989C15.7857 25.9989 15.4998 25.7141 15.4998 25.0715C15.4998 23.1344 15.4808 21.1963 15.5093 19.2592C15.5209 18.4563 14.9596 17.8021 14.066 17.8317C13.3559 17.8549 12.6437 17.8549 11.9337 17.8317C11.0675 17.8032 10.483 18.4352 10.4956 19.2645C10.5252 21.1931 10.5051 23.1228 10.5051 25.0515C10.5051 25.7257 10.2276 25.9989 9.54713 25.9989C8.261 25.9989 6.97488 25.9979 5.68875 26C5.44186 26 5.19814 25.9821 4.9597 25.924C3.64931 25.6044 2.79576 24.5124 2.79365 23.1323C2.78943 20.6445 2.78837 18.1577 2.79787 15.6698C2.79892 15.4346 2.73562 15.3755 2.50773 15.3839C1.69532 15.4135 1.01903 15.1107 0.514705 14.4702C-0.260768 13.4848 -0.149986 12.1607 0.779527 11.2312C4.15257 7.85602 7.52984 4.48403 10.8997 1.10571C11.3703 0.634095 11.8408 0.179361 12.5235 0.0379824C12.5309 0.0379824 12.5372 0.0137159 12.5446 0Z" fill="#C3C3C3"/>
</svg>
