<svg width="22" height="14" viewBox="0 0 22 14" fill="none" xmlns="http://www.w3.org/2000/svg">
<path d="M22 7.11978C21.6259 7.70937 21.2438 8.29322 20.7984 8.8334C19.0509 10.9533 16.9413 12.5606 14.268 13.3151C10.9172 14.261 7.7342 13.8122 4.76209 12.0009C2.86573 10.8453 1.35841 9.2845 0.168304 7.41227C-0.0546623 7.06116 -0.0575356 6.74797 0.168304 6.39801C1.84572 3.79885 4.0363 1.7956 6.97451 0.739962C10.3431 -0.470835 13.633 -0.190403 16.7689 1.54218C18.8463 2.69034 20.4812 4.32408 21.7598 6.31756C21.846 6.45203 21.9195 6.59397 21.9994 6.73246C22 6.86176 22 6.99048 22 7.11978ZM11.3091 1.40139C9.82939 1.39909 8.64043 1.60309 7.571 1.99156C5.02988 2.91445 3.09559 4.59762 1.56127 6.78418C1.49633 6.8767 1.50093 6.93531 1.56299 7.02553C1.95835 7.59846 2.39164 8.14094 2.86975 8.64606C4.63279 10.5079 6.71132 11.8193 9.27428 12.2595C11.1896 12.5888 13.0561 12.3894 14.8536 11.6504C17.1896 10.6901 18.9888 9.0759 20.4249 7.02553C20.5025 6.9152 20.4697 6.85371 20.4094 6.76636C19.7405 5.80209 18.9675 4.93092 18.078 4.1649C16.0431 2.41393 13.7123 1.41805 11.3091 1.40139Z" fill="#CECECE"/>
<path d="M15.1202 6.89969C15.1225 9.17244 13.2733 11.0286 11.0023 11.0326C8.72031 11.0366 6.86188 9.17991 6.86475 6.89854C6.86705 4.62693 8.72088 2.77654 10.9936 2.77712C13.2653 2.77712 15.1179 4.6275 15.1202 6.89969ZM10.9896 4.15284C9.48115 4.15399 8.24335 5.38892 8.24047 6.89624C8.2376 8.41562 9.47655 9.65745 10.9948 9.6563C12.5125 9.65515 13.7485 8.41218 13.7439 6.89107C13.7393 5.38432 12.4998 4.15169 10.9896 4.15284Z" fill="#CECECE"/>
</svg>
