<svg width="25" height="26" viewBox="0 0 25 26" fill="none" xmlns="http://www.w3.org/2000/svg">
<path d="M0.00233137 12.3597C0.00233137 9.73035 -0.00309635 7.10023 0.00388214 4.47089C0.0100852 2.2998 1.45308 0.535793 3.57765 0.0860681C3.88082 0.0224863 4.18865 0 4.49958 0C8.56029 0.00232616 12.621 -0.00155078 16.6817 0.00232616C19.218 0.00465233 21.1759 1.96328 21.1805 4.50656C21.1867 8.19973 21.1852 11.8929 21.1751 15.5853C21.1743 15.8319 21.2503 15.8962 21.4767 15.9474C23.1384 16.3219 24.2177 17.34 24.6085 18.9931C24.9993 20.6463 24.5201 22.0613 23.1655 23.1112C22.0823 23.951 20.9634 24.7457 19.8422 25.5351C18.9396 26.1709 17.7928 26.1461 16.8825 25.5126C16.5732 25.2978 16.2692 25.0753 15.9722 24.8434C15.8257 24.7295 15.6737 24.693 15.4915 24.6938C11.8658 24.6977 8.24006 24.6938 4.61434 24.6977C3.20236 24.6992 2.00749 24.213 1.07624 23.1407C0.343502 22.2986 -0.00154557 21.3092 5.20349e-06 20.1903C0.00543292 17.5804 0.00233137 14.9704 0.00233137 12.3597ZM13.2723 22.8398C12.9063 22.4723 12.6373 22.1335 12.4434 21.7411C11.7053 20.2446 11.9798 18.3806 13.118 17.157C14.2904 15.897 16.0916 15.4566 17.6486 16.1428C18.1829 16.3785 18.6109 16.4762 19.1149 16.1413C19.263 16.0428 19.3289 15.98 19.3289 15.8032C19.3235 12.0526 19.3273 8.30131 19.3235 4.55075C19.3219 2.96741 18.2046 1.85861 16.6173 1.85783C12.5954 1.85628 8.57347 1.8555 4.55153 1.85783C2.97284 1.85861 1.86094 2.95733 1.86016 4.52904C1.85628 9.73965 1.85861 14.9503 1.85784 20.1609C1.85784 20.433 1.87955 20.7005 1.95631 20.9626C2.29748 22.1257 3.2954 22.8375 4.60736 22.8383C7.39178 22.8406 10.1762 22.8391 12.9606 22.8391C13.0351 22.8398 13.1103 22.8398 13.2723 22.8398ZM22.8794 19.8282C22.8453 19.0466 22.4661 18.3294 21.6225 17.9378C20.7502 17.5331 19.9058 17.637 19.1544 18.2519C18.583 18.7194 18.1767 18.7318 17.623 18.2519C16.6608 17.4183 15.2123 17.5292 14.4098 18.4953C13.6856 19.3669 13.6251 20.837 14.7673 21.6744C15.8187 22.4452 16.8732 23.212 17.9278 23.9773C18.2178 24.1875 18.5271 24.2014 18.8171 23.9913C19.9197 23.1926 21.0231 22.3948 22.1117 21.5767C22.6398 21.1805 22.8701 20.6168 22.8794 19.8282Z" fill="#C4C4C4"/>
<path d="M12.3357 8.882C11.2051 8.882 10.0746 8.88355 8.94333 8.88122C8.32534 8.87967 7.90586 8.50516 7.90276 7.96006C7.89966 7.40101 8.32302 7.02572 8.96039 7.02495C11.2408 7.02417 13.522 7.02339 15.8024 7.02572C16.308 7.0265 16.7057 7.34983 16.774 7.80344C16.8453 8.27487 16.5615 8.72305 16.1002 8.84478C15.9722 8.8789 15.8327 8.8789 15.6985 8.87967C14.5781 8.88355 13.4569 8.882 12.3357 8.882Z" fill="#C4C4C4"/>
<path d="M12.3341 13.2802C11.1842 13.2802 10.0343 13.2833 8.88441 13.2786C8.44321 13.2771 8.09584 13.0375 7.96015 12.663C7.826 12.2923 7.92991 11.8976 8.23386 11.6402C8.40134 11.4975 8.59519 11.4239 8.81773 11.4239C11.1664 11.4247 13.5143 11.4216 15.8629 11.4262C16.3871 11.427 16.781 11.8341 16.7825 12.3427C16.7848 12.8731 16.3801 13.2747 15.8141 13.2778C14.6533 13.2848 13.4941 13.2794 12.3341 13.2802Z" fill="#C4C4C4"/>
<path d="M9.87301 17.6634C9.53494 17.6634 9.19688 17.6703 8.85958 17.6618C8.30906 17.6486 7.9074 17.2594 7.90275 16.7468C7.8981 16.2297 8.28269 15.8272 8.83942 15.8133C9.53417 15.7962 10.2297 15.7954 10.9237 15.8141C11.4788 15.8288 11.8572 16.2351 11.8487 16.7569C11.8402 17.2749 11.4463 17.6502 10.8857 17.6626C10.5484 17.6696 10.2103 17.6641 9.87301 17.6634Z" fill="#C4C4C4"/>
<path d="M4.40963 12.3395C4.41196 11.8254 4.81128 11.4253 5.32537 11.423C5.84565 11.4207 6.27211 11.8409 6.26746 12.3519C6.26281 12.8497 5.841 13.2723 5.3432 13.2777C4.83299 13.2839 4.40731 12.8559 4.40963 12.3395Z" fill="#C4C4C4"/>
<path d="M4.40963 16.7244C4.41428 16.2134 4.82059 15.8102 5.33079 15.8102C5.8441 15.8102 6.27522 16.2428 6.26746 16.7484C6.25971 17.2485 5.83867 17.6618 5.337 17.6618C4.81671 17.6626 4.40498 17.2462 4.40963 16.7244Z" fill="#C4C4C4"/>
<path d="M5.34166 8.87972C4.82137 8.88205 4.40654 8.46644 4.40964 7.94615C4.41274 7.43672 4.81982 7.02809 5.32692 7.02577C5.83868 7.02344 6.2729 7.45533 6.26747 7.96244C6.26282 8.46489 5.84566 8.87817 5.34166 8.87972Z" fill="#C4C4C4"/>
</svg>
