<svg width="18" height="22" viewBox="0 0 18 22" fill="none" xmlns="http://www.w3.org/2000/svg">
<path d="M8.84775 21.9992C6.92814 21.9992 5.00794 21.9998 3.08833 21.9992C1.29735 21.9986 0.00211343 20.7028 0.000905758 18.9106C-0.000301919 16.4711 -0.000301919 14.0316 0.000905758 11.5921C0.00211343 10.0209 1.01958 8.81381 2.56601 8.55053C2.71335 8.52517 2.86672 8.51612 3.01587 8.52517C3.17227 8.53483 3.21816 8.48894 3.21695 8.32832C3.2091 7.40203 3.18917 6.47514 3.21755 5.55006C3.28941 3.20535 4.36787 1.45603 6.51089 0.506196C9.7692 -0.937582 13.5498 0.812946 14.3384 4.41122C14.4212 4.78741 14.4574 5.16843 14.4568 5.55368C14.455 6.47212 14.4598 7.39116 14.4532 8.3096C14.452 8.46781 14.4761 8.52457 14.6561 8.52638C16.3861 8.54208 17.665 9.83611 17.6674 11.5691C17.671 14.0316 17.671 16.4934 17.6674 18.9559C17.665 20.7046 16.3619 21.9986 14.6078 21.9998C12.6876 22.0004 10.768 21.9992 8.84775 21.9992ZM8.84352 20.553C10.7559 20.553 12.6682 20.5542 14.5806 20.5524C15.5745 20.5518 16.2206 19.9087 16.2212 18.9178C16.223 16.4783 16.223 14.0388 16.2212 11.5987C16.2206 10.609 15.5733 9.96714 14.5782 9.96654C10.7535 9.96533 6.92875 9.96593 3.10403 9.96714C2.96938 9.96714 2.8311 9.96714 2.70006 9.99431C1.94285 10.1501 1.44831 10.7702 1.4477 11.5673C1.44529 13.9996 1.4634 16.4318 1.43865 18.8635C1.42898 19.8459 2.16386 20.5772 3.12939 20.5615C5.0339 20.5307 6.93901 20.553 8.84352 20.553ZM8.84171 8.52034C10.1665 8.52034 11.4914 8.51732 12.8162 8.52396C12.9738 8.52457 13.016 8.48592 13.0148 8.32651C13.007 7.37788 13.0106 6.42985 13.0106 5.48122C13.0106 5.1787 12.9683 4.88101 12.8983 4.58754C12.469 2.78931 10.812 1.4192 8.76321 1.46026C6.46862 1.50615 4.67401 3.26393 4.65952 5.55912C4.65348 6.47756 4.66314 7.39599 4.65409 8.31383C4.65227 8.48653 4.70058 8.52397 4.86724 8.52336C6.19267 8.51732 7.51688 8.52034 8.84171 8.52034Z" fill="#CECECE"/>
<path d="M8.11715 15.2507C8.11715 14.8443 8.11353 14.4386 8.11836 14.0322C8.12319 13.5787 8.41303 13.2701 8.82847 13.2665C9.2427 13.2629 9.5561 13.5721 9.56093 14.0159C9.56878 14.8431 9.56878 15.6704 9.56093 16.4977C9.5567 16.9445 9.24874 17.2524 8.8339 17.2512C8.41846 17.25 8.12621 16.9403 8.11715 16.491C8.11655 16.4759 8.11715 16.4608 8.11715 16.4457C8.11715 16.0484 8.11715 15.6499 8.11715 15.2507Z" fill="#CECECE"/>
</svg>
