<svg width="22" height="22" viewBox="0 0 22 22" fill="none" xmlns="http://www.w3.org/2000/svg">
<path d="M4.70088 0C4.80748 0.0771063 4.94046 0.061685 5.05853 0.101095C5.42764 0.224465 5.7423 0.436364 6.01398 0.704237C7.00496 1.68092 8.01601 2.63875 8.9537 3.66626C9.73491 4.52243 9.7286 5.63276 8.96917 6.50434C8.44072 7.11034 7.86069 7.66665 7.26976 8.21096C7.16029 8.31149 7.14711 8.38574 7.21073 8.51825C7.78331 9.71482 8.61267 10.7263 9.51138 11.6859C10.4215 12.6569 11.4217 13.5256 12.5485 14.2418C12.862 14.4412 13.2014 14.5994 13.5223 14.7873C13.6289 14.8495 13.6754 14.7947 13.7378 14.7324C14.225 14.2458 14.7116 13.7586 15.2011 13.2743C15.584 12.8956 16.0115 12.5912 16.5618 12.5038C17.2759 12.3907 17.8863 12.6163 18.3901 13.1075C19.3553 14.0488 20.3125 14.9992 21.2588 15.9599C22.2561 16.9731 22.2452 18.2154 21.237 19.2526C20.6822 19.8232 20.1182 20.3852 19.56 20.9523C18.7226 21.8028 17.6725 22.077 16.5067 21.9821C14.8773 21.8496 13.3888 21.2705 11.9444 20.5491C9.434 19.2954 7.22334 17.6402 5.31874 15.5892C3.35969 13.4788 1.73709 11.145 0.707124 8.43657C0.278977 7.3131 -0.0288082 6.16565 0.00214226 4.95022C0.0262148 3.99582 0.336866 3.15565 1.01434 2.4714C1.64997 1.82885 2.26955 1.1703 2.94702 0.571158C3.24105 0.311281 3.58322 0.135364 3.96838 0.0468349C4.00163 0.0388387 4.04175 0.0451215 4.05436 0C4.26929 0 4.48537 0 4.70088 0ZM16.8827 20.8929C17.5562 20.9089 18.1758 20.741 18.6647 20.271C19.3049 19.6547 19.9273 19.0178 20.5303 18.3656C21.0043 17.8521 20.9991 17.3164 20.5131 16.8195C19.5508 15.8348 18.5713 14.8655 17.5866 13.9031C17.2014 13.5267 16.7131 13.5153 16.274 13.8323C16.164 13.9117 16.0643 14.0065 15.968 14.1019C15.4275 14.6371 14.8922 15.1762 14.35 15.7097C14.0026 16.0512 13.6232 16.1112 13.1905 15.8925C12.8775 15.7343 12.5652 15.5726 12.2642 15.3933C10.8973 14.5794 9.70453 13.5524 8.62642 12.3913C7.62856 11.3169 6.71896 10.1786 6.11715 8.82496C5.86954 8.26865 5.92399 7.93681 6.37621 7.52043C6.91498 7.02467 7.43082 6.50606 7.94265 5.98288C8.55822 5.35403 8.55478 4.8537 7.94494 4.21857C7.93978 4.21343 7.93462 4.20829 7.92947 4.20315C7.04566 3.32185 6.16185 2.44056 5.2769 1.5604C5.13418 1.41876 4.98287 1.28453 4.79487 1.20571C4.27846 0.988674 3.87324 1.204 3.51502 1.55469C2.97682 2.0813 2.44436 2.61419 1.91419 3.14936C1.65054 3.41552 1.42644 3.71024 1.2969 4.06836C1.03325 4.79601 1.08885 5.53509 1.23787 6.2696C1.52101 7.66779 2.06149 8.97631 2.76304 10.2106C5.27289 14.6239 8.78347 17.9652 13.465 20.0328C14.554 20.5148 15.6831 20.8473 16.8827 20.8929Z" fill="#CECECE"/>
</svg>
