<svg width="28" height="29" viewBox="0 0 28 29" fill="none" xmlns="http://www.w3.org/2000/svg">
<path d="M24.8257 28.5771C24.7234 28.4727 24.5773 28.4876 24.453 28.4429C23.9488 28.2639 23.5468 27.9506 23.1887 27.5479C21.3178 25.4521 19.4396 23.3563 17.5761 21.253C17.3934 21.0442 17.2837 21.0144 17.028 21.171C15.0109 22.4314 12.8185 22.9834 10.4506 22.8342C5.70035 22.5359 1.3447 19.0528 0.23386 13.7947C0.153471 13.4068 0.11693 13.0041 0.0584651 12.6163C0.0511569 12.5715 0.0657732 12.5193 0 12.5044C0 11.7809 0 11.05 0 10.3266C0.138855 9.96855 0.131546 9.57326 0.211936 9.20034C0.964674 5.66509 2.89402 3.02483 6.0146 1.30941C7.76855 0.347285 9.66866 -0.0778409 11.6638 0.0116593C16.8526 0.250326 21.0036 3.9795 22.0925 8.83488C22.7795 11.9077 22.3044 14.8016 20.682 17.4866C20.5724 17.673 20.6309 17.7476 20.7551 17.8669C22.8672 19.8285 24.9792 21.7826 27.0766 23.7516C28.5456 25.1388 28.2094 27.4808 26.4408 28.3235C26.1997 28.4354 25.9439 28.4727 25.7027 28.5697C25.4104 28.5771 25.1181 28.5771 24.8257 28.5771ZM11.2034 21.8945C16.7356 21.969 21.3617 17.3225 21.4494 11.6019C21.5371 5.78442 17.0206 1.01854 11.2911 0.966328C5.63457 0.914119 0.971982 5.50846 0.942749 11.3931C0.913517 17.3225 5.63457 21.9243 11.2034 21.8945ZM27.062 25.8026C27.0401 25.3029 26.8501 24.848 26.4554 24.4825C24.3653 22.5359 22.2679 20.5892 20.1851 18.6352C20.0316 18.486 19.9585 18.5382 19.8562 18.6724C19.3958 19.2617 18.8769 19.7987 18.2923 20.2611C18.1242 20.3953 18.1388 20.4699 18.2703 20.6191C19.2423 21.6931 20.1997 22.7745 21.1644 23.8485C22.0998 24.9002 23.0425 25.9518 23.978 26.996C24.5042 27.5852 25.2496 27.7642 25.9366 27.4882C26.6089 27.2272 27.062 26.5559 27.062 25.8026Z" fill="#969595" fill-opacity="0.84"/>
</svg>
