<svg width="20" height="21" viewBox="0 0 20 21" fill="none" xmlns="http://www.w3.org/2000/svg">
<path d="M9.99359 20.0208C8.06754 20.0208 6.14098 20.0091 4.21493 20.0254C3.08765 20.0352 2.26074 19.3065 1.95781 18.3552C1.63851 17.3523 1.46504 16.3105 1.2271 15.2855C0.842813 13.6322 0.471317 11.9764 0.100333 10.32C-0.152448 9.19269 0.0558147 8.18361 0.914963 7.36489C1.27623 7.02103 1.71834 6.83477 2.22236 6.82607C2.67829 6.81788 3.13473 6.81481 3.59014 6.82453C3.74161 6.8276 3.78664 6.78308 3.79431 6.63315C3.85879 5.39023 4.19754 4.22559 4.83716 3.15716C5.74544 1.64098 7.01395 0.573061 8.75783 0.161141C10.2658 -0.196028 11.6976 0.0598236 12.9973 0.896969C14.8031 2.06058 15.7743 3.77018 16.1315 5.85895C16.175 6.11429 16.2082 6.37065 16.2113 6.62906C16.2128 6.7749 16.2553 6.82811 16.4114 6.82402C16.8468 6.81276 17.2828 6.8102 17.7183 6.823C18.7289 6.85319 19.3588 7.42936 19.7579 8.29926C20.1074 9.06118 20.026 9.84306 19.8418 10.6357C19.2759 13.0688 18.7294 15.5071 18.1711 17.9423C17.9797 18.7759 17.5647 19.4487 16.7639 19.831C16.463 19.9748 16.1427 20.0208 15.8137 20.0208C13.8733 20.0208 11.9335 20.0208 9.99359 20.0208ZM10.0038 8.48398C7.68325 8.48398 5.36268 8.48398 3.04211 8.48398C2.80417 8.48398 2.56572 8.47887 2.32777 8.48552C1.97572 8.49575 1.80788 8.62419 1.70759 8.96294C1.60576 9.30731 1.66 9.65066 1.73676 9.99043C2.19115 12.003 2.64349 14.0165 3.10505 16.0275C3.24475 16.6354 3.34453 17.2541 3.54409 17.8471C3.66792 18.215 3.87414 18.3501 4.25689 18.3501C6.17578 18.3501 8.09466 18.3501 10.0141 18.3501C11.9534 18.3501 13.8928 18.3476 15.8321 18.3537C16.0639 18.3542 16.2159 18.2555 16.3418 18.0794C16.4763 17.8921 16.5285 17.6747 16.5777 17.4567C16.9533 15.8018 17.334 14.148 17.7019 12.4916C17.9214 11.5046 18.1788 10.5257 18.3512 9.52785C18.383 9.34262 18.3707 9.16045 18.3287 8.98136C18.2443 8.61958 18.0355 8.48398 17.5775 8.48398C15.0528 8.48398 12.5281 8.48398 10.0038 8.48398ZM10.0028 6.82044C11.4591 6.82044 12.9159 6.8189 14.3722 6.823C14.5078 6.82351 14.5585 6.80253 14.5462 6.64646C14.4306 5.20602 13.9153 3.94723 12.8898 2.91001C11.3752 1.37746 9.03978 1.26386 7.40591 2.65364C6.20699 3.67347 5.62007 5.00236 5.47014 6.54514C5.44353 6.8189 5.45325 6.81993 5.7352 6.81993C7.15773 6.82044 8.58027 6.82044 10.0028 6.82044Z" fill="#FE9F01"/>
<path d="M9.99359 20.0208C8.06754 20.0208 6.14098 20.0091 4.21493 20.0254C3.08765 20.0352 2.26074 19.3065 1.95781 18.3552C1.63851 17.3523 1.46504 16.3105 1.2271 15.2855C0.842813 13.6322 0.471317 11.9764 0.100333 10.32C-0.152448 9.19269 0.0558147 8.18361 0.914963 7.36489C1.27623 7.02103 1.71834 6.83477 2.22236 6.82607C2.67829 6.81788 3.13473 6.81481 3.59014 6.82453C3.74161 6.8276 3.78664 6.78308 3.79431 6.63315C3.85879 5.39023 4.19754 4.22559 4.83716 3.15716C5.74544 1.64098 7.01395 0.573061 8.75783 0.161141C10.2658 -0.196028 11.6976 0.0598236 12.9973 0.896969C14.8031 2.06058 15.7743 3.77018 16.1315 5.85895C16.175 6.11429 16.2082 6.37065 16.2113 6.62906C16.2128 6.7749 16.2553 6.82811 16.4114 6.82402C16.8468 6.81276 17.2828 6.8102 17.7183 6.823C18.7289 6.85319 19.3588 7.42936 19.7579 8.29926C20.1074 9.06118 20.026 9.84306 19.8418 10.6357C19.2759 13.0688 18.7294 15.5071 18.1711 17.9423C17.9797 18.7759 17.5647 19.4487 16.7639 19.831C16.463 19.9748 16.1427 20.0208 15.8137 20.0208C13.8733 20.0208 11.9335 20.0208 9.99359 20.0208ZM10.0038 8.48398C7.68325 8.48398 5.36268 8.48398 3.04211 8.48398C2.80417 8.48398 2.56572 8.47887 2.32777 8.48552C1.97572 8.49575 1.80788 8.62419 1.70759 8.96294C1.60576 9.30731 1.66 9.65066 1.73676 9.99043C2.19115 12.003 2.64349 14.0165 3.10505 16.0275C3.24475 16.6354 3.34453 17.2541 3.54409 17.8471C3.66792 18.215 3.87414 18.3501 4.25689 18.3501C6.17578 18.3501 8.09466 18.3501 10.0141 18.3501C11.9534 18.3501 13.8928 18.3476 15.8321 18.3537C16.0639 18.3542 16.2159 18.2555 16.3418 18.0794C16.4763 17.8921 16.5285 17.6747 16.5777 17.4567C16.9533 15.8018 17.334 14.148 17.7019 12.4916C17.9214 11.5046 18.1788 10.5257 18.3512 9.52785C18.383 9.34262 18.3707 9.16045 18.3287 8.98136C18.2443 8.61958 18.0355 8.48398 17.5775 8.48398C15.0528 8.48398 12.5281 8.48398 10.0038 8.48398ZM10.0028 6.82044C11.4591 6.82044 12.9159 6.8189 14.3722 6.823C14.5078 6.82351 14.5585 6.80253 14.5462 6.64646C14.4306 5.20602 13.9153 3.94723 12.8898 2.91001C11.3752 1.37746 9.03978 1.26386 7.40591 2.65364C6.20699 3.67347 5.62007 5.00236 5.47014 6.54514C5.44353 6.8189 5.45325 6.81993 5.7352 6.81993C7.15773 6.82044 8.58027 6.82044 10.0028 6.82044Z" fill="black" fill-opacity="0.2"/>
<path d="M6.69567 13.5902C6.69567 14.4606 6.70028 15.3311 6.69363 16.2009C6.69056 16.5883 6.41373 16.9158 6.05195 16.9936C5.67124 17.0754 5.28184 16.8887 5.11656 16.5417C5.04799 16.398 5.02957 16.2429 5.02957 16.0848C5.02957 14.412 5.02855 12.7398 5.03008 11.067C5.03059 10.6167 5.245 10.2974 5.6124 10.1823C5.95729 10.0743 6.32264 10.1946 6.53653 10.4852C6.65832 10.651 6.69874 10.8373 6.69823 11.0404C6.69516 11.8904 6.69721 12.7403 6.69721 13.5902C6.69619 13.5902 6.69567 13.5902 6.69567 13.5902Z" fill="#FE9F01"/>
<path d="M6.69567 13.5902C6.69567 14.4606 6.70028 15.3311 6.69363 16.2009C6.69056 16.5883 6.41373 16.9158 6.05195 16.9936C5.67124 17.0754 5.28184 16.8887 5.11656 16.5417C5.04799 16.398 5.02957 16.2429 5.02957 16.0848C5.02957 14.412 5.02855 12.7398 5.03008 11.067C5.03059 10.6167 5.245 10.2974 5.6124 10.1823C5.95729 10.0743 6.32264 10.1946 6.53653 10.4852C6.65832 10.651 6.69874 10.8373 6.69823 11.0404C6.69516 11.8904 6.69721 12.7403 6.69721 13.5902C6.69619 13.5902 6.69567 13.5902 6.69567 13.5902Z" fill="black" fill-opacity="0.2"/>
<path d="M10.7381 13.5964C10.7381 14.453 10.7443 15.3096 10.7361 16.1662C10.7299 16.7838 10.1374 17.1855 9.58578 16.9486C9.21991 16.791 9.06845 16.488 9.06845 16.1002C9.06845 15.087 9.06845 14.0743 9.06845 13.0612C9.06845 12.3811 9.06129 11.7016 9.0705 11.0215C9.07971 10.3282 9.75106 9.92239 10.3231 10.2606C10.6107 10.4305 10.7397 10.6945 10.7392 11.0266C10.7371 11.8832 10.7381 12.7398 10.7381 13.5964Z" fill="#FE9F01"/>
<path d="M10.7381 13.5964C10.7381 14.453 10.7443 15.3096 10.7361 16.1662C10.7299 16.7838 10.1374 17.1855 9.58578 16.9486C9.21991 16.791 9.06845 16.488 9.06845 16.1002C9.06845 15.087 9.06845 14.0743 9.06845 13.0612C9.06845 12.3811 9.06129 11.7016 9.0705 11.0215C9.07971 10.3282 9.75106 9.92239 10.3231 10.2606C10.6107 10.4305 10.7397 10.6945 10.7392 11.0266C10.7371 11.8832 10.7381 12.7398 10.7381 13.5964Z" fill="black" fill-opacity="0.2"/>
<path d="M14.777 13.5841C14.777 14.4274 14.7811 15.2702 14.7754 16.1135C14.7714 16.7603 14.2218 17.1686 13.6497 16.9598C13.3115 16.8365 13.1083 16.5326 13.1073 16.1324C13.1053 14.9632 13.1063 13.7934 13.1063 12.6242C13.1063 12.0941 13.1042 11.5634 13.1068 11.0333C13.1093 10.518 13.4655 10.1389 13.9388 10.1404C14.4147 10.1419 14.7719 10.517 14.7749 11.0343C14.7806 11.8848 14.777 12.7342 14.777 13.5841Z" fill="#FE9F01"/>
<path d="M14.777 13.5841C14.777 14.4274 14.7811 15.2702 14.7754 16.1135C14.7714 16.7603 14.2218 17.1686 13.6497 16.9598C13.3115 16.8365 13.1083 16.5326 13.1073 16.1324C13.1053 14.9632 13.1063 13.7934 13.1063 12.6242C13.1063 12.0941 13.1042 11.5634 13.1068 11.0333C13.1093 10.518 13.4655 10.1389 13.9388 10.1404C14.4147 10.1419 14.7719 10.517 14.7749 11.0343C14.7806 11.8848 14.777 12.7342 14.777 13.5841Z" fill="black" fill-opacity="0.2"/>
</svg>
