<svg width="54" height="10" viewBox="0 0 54 10" fill="none" xmlns="http://www.w3.org/2000/svg">
<path d="M10 3.75848V4.01212C9.93215 4.03042 9.92171 4.10363 9.87996 4.14547C9.53028 4.49847 9.1832 4.85408 8.83352 5.20969C8.46557 5.58622 8.09501 5.96275 7.72706 6.33929C7.71662 6.34974 7.70879 6.35759 7.70096 6.36805C7.6827 6.38635 7.68009 6.40465 7.6827 6.4308C7.72445 6.67659 7.76359 6.92238 7.80535 7.16556C7.86798 7.53948 7.93061 7.91078 7.98802 8.28469C8.04282 8.62985 8.08979 8.975 8.14981 9.31754C8.19417 9.56333 8.27768 9.80912 8.02716 9.99739H7.77403C7.76881 9.9477 7.72184 9.94509 7.69053 9.92679C7.46871 9.80389 7.2469 9.68622 7.02509 9.56333C6.55797 9.30446 6.08825 9.04298 5.62113 8.78412C5.41498 8.66907 5.20882 8.5514 5.00266 8.43635C4.96613 8.45727 4.9296 8.4808 4.89306 8.49911C3.99276 8.99853 3.08985 9.50057 2.18954 10H2.03297C1.81116 9.89018 1.77201 9.80128 1.81116 9.55287C1.97034 8.56971 2.1243 7.58654 2.29132 6.60338C2.32002 6.43603 2.27566 6.33667 2.16345 6.22423C1.47713 5.5287 0.796031 4.82793 0.114932 4.12717C0.0183776 4.02781 -0.0285947 3.91798 0.0183776 3.78201C0.0653499 3.64605 0.167123 3.58329 0.302821 3.56237C0.394156 3.5493 0.482882 3.53622 0.571607 3.52315C1.41711 3.39502 2.26 3.25906 3.1055 3.14139C3.28296 3.11786 3.36907 3.04464 3.43953 2.88775C3.85706 1.98826 4.28242 1.09139 4.70517 0.191899C4.76519 0.0637737 4.85653 -0.0068258 5.00266 0.00101859C5.1488 -0.0094406 5.24275 0.0611589 5.30016 0.189284C5.60548 0.840368 5.9108 1.49145 6.21612 2.13992C6.35442 2.43801 6.49534 2.7361 6.63365 3.03418C6.65453 3.08125 6.68062 3.1074 6.73803 3.11524C7.1921 3.18061 7.64355 3.25644 8.09501 3.32442C8.62475 3.40548 9.1545 3.48131 9.68424 3.56237C9.79906 3.58067 9.90606 3.61728 9.96086 3.73233C9.96869 3.75064 9.98434 3.75587 10 3.75848Z" fill="#FDC114"/>
<path d="M21 3.75848V4.01212C20.9322 4.03042 20.9217 4.10363 20.88 4.14547C20.5303 4.49847 20.1832 4.85408 19.8335 5.20969C19.4656 5.58622 19.095 5.96275 18.7271 6.33929C18.7166 6.34974 18.7088 6.35759 18.701 6.36805C18.6827 6.38635 18.6801 6.40465 18.6827 6.4308C18.7245 6.67659 18.7636 6.92238 18.8053 7.16556C18.868 7.53948 18.9306 7.91078 18.988 8.28469C19.0428 8.62985 19.0898 8.975 19.1498 9.31754C19.1942 9.56333 19.2777 9.80912 19.0272 9.99739H18.774C18.7688 9.9477 18.7218 9.94509 18.6905 9.92679C18.4687 9.80389 18.2469 9.68622 18.0251 9.56333C17.558 9.30446 17.0882 9.04298 16.6211 8.78412C16.415 8.66907 16.2088 8.5514 16.0027 8.43635C15.9661 8.45727 15.9296 8.4808 15.8931 8.49911C14.9928 8.99853 14.0898 9.50057 13.1895 10H13.033C12.8112 9.89018 12.772 9.80128 12.8112 9.55287C12.9703 8.56971 13.1243 7.58654 13.2913 6.60338C13.32 6.43603 13.2757 6.33667 13.1634 6.22423C12.4771 5.5287 11.796 4.82793 11.1149 4.12717C11.0184 4.02781 10.9714 3.91798 11.0184 3.78201C11.0653 3.64605 11.1671 3.58329 11.3028 3.56237C11.3942 3.5493 11.4829 3.53622 11.5716 3.52315C12.4171 3.39502 13.26 3.25906 14.1055 3.14139C14.283 3.11786 14.3691 3.04464 14.4395 2.88775C14.8571 1.98826 15.2824 1.09139 15.7052 0.191899C15.7652 0.0637737 15.8565 -0.0068258 16.0027 0.00101859C16.1488 -0.0094406 16.2427 0.0611589 16.3002 0.189284C16.6055 0.840368 16.9108 1.49145 17.2161 2.13992C17.3544 2.43801 17.4953 2.7361 17.6336 3.03418C17.6545 3.08125 17.6806 3.1074 17.738 3.11524C18.1921 3.18061 18.6436 3.25644 19.095 3.32442C19.6248 3.40548 20.1545 3.48131 20.6842 3.56237C20.7991 3.58067 20.9061 3.61728 20.9609 3.73233C20.9687 3.75064 20.9843 3.75587 21 3.75848Z" fill="#FDC114"/>
<path d="M32 3.75848V4.01212C31.9322 4.03042 31.9217 4.10363 31.88 4.14547C31.5303 4.49847 31.1832 4.85408 30.8335 5.20969C30.4656 5.58622 30.095 5.96275 29.7271 6.33929C29.7166 6.34974 29.7088 6.35759 29.701 6.36805C29.6827 6.38635 29.6801 6.40465 29.6827 6.4308C29.7245 6.67659 29.7636 6.92238 29.8053 7.16556C29.868 7.53948 29.9306 7.91078 29.988 8.28469C30.0428 8.62985 30.0898 8.975 30.1498 9.31754C30.1942 9.56333 30.2777 9.80912 30.0272 9.99739H29.774C29.7688 9.9477 29.7218 9.94509 29.6905 9.92679C29.4687 9.80389 29.2469 9.68622 29.0251 9.56333C28.558 9.30446 28.0882 9.04298 27.6211 8.78412C27.415 8.66907 27.2088 8.5514 27.0027 8.43635C26.9661 8.45727 26.9296 8.4808 26.8931 8.49911C25.9928 8.99853 25.0898 9.50057 24.1895 10H24.033C23.8112 9.89018 23.772 9.80128 23.8112 9.55287C23.9703 8.56971 24.1243 7.58654 24.2913 6.60338C24.32 6.43603 24.2757 6.33667 24.1634 6.22423C23.4771 5.5287 22.796 4.82793 22.1149 4.12717C22.0184 4.02781 21.9714 3.91798 22.0184 3.78201C22.0653 3.64605 22.1671 3.58329 22.3028 3.56237C22.3942 3.5493 22.4829 3.53622 22.5716 3.52315C23.4171 3.39502 24.26 3.25906 25.1055 3.14139C25.283 3.11786 25.3691 3.04464 25.4395 2.88775C25.8571 1.98826 26.2824 1.09139 26.7052 0.191899C26.7652 0.0637737 26.8565 -0.0068258 27.0027 0.00101859C27.1488 -0.0094406 27.2427 0.0611589 27.3002 0.189284C27.6055 0.840368 27.9108 1.49145 28.2161 2.13992C28.3544 2.43801 28.4953 2.7361 28.6336 3.03418C28.6545 3.08125 28.6806 3.1074 28.738 3.11524C29.1921 3.18061 29.6436 3.25644 30.095 3.32442C30.6248 3.40548 31.1545 3.48131 31.6842 3.56237C31.7991 3.58067 31.9061 3.61728 31.9609 3.73233C31.9687 3.75064 31.9843 3.75587 32 3.75848Z" fill="#FDC114"/>
<path d="M43 3.75848V4.01212C42.9322 4.03042 42.9217 4.10363 42.88 4.14547C42.5303 4.49847 42.1832 4.85408 41.8335 5.20969C41.4656 5.58622 41.095 5.96275 40.7271 6.33929C40.7166 6.34974 40.7088 6.35759 40.701 6.36805C40.6827 6.38635 40.6801 6.40465 40.6827 6.4308C40.7245 6.67659 40.7636 6.92238 40.8053 7.16556C40.868 7.53948 40.9306 7.91078 40.988 8.28469C41.0428 8.62985 41.0898 8.975 41.1498 9.31754C41.1942 9.56333 41.2777 9.80912 41.0272 9.99739H40.774C40.7688 9.9477 40.7218 9.94509 40.6905 9.92679C40.4687 9.80389 40.2469 9.68622 40.0251 9.56333C39.558 9.30446 39.0882 9.04298 38.6211 8.78412C38.415 8.66907 38.2088 8.5514 38.0027 8.43635C37.9661 8.45727 37.9296 8.4808 37.8931 8.49911C36.9928 8.99853 36.0898 9.50057 35.1895 10H35.033C34.8112 9.89018 34.772 9.80128 34.8112 9.55287C34.9703 8.56971 35.1243 7.58654 35.2913 6.60338C35.32 6.43603 35.2757 6.33667 35.1634 6.22423C34.4771 5.5287 33.796 4.82793 33.1149 4.12717C33.0184 4.02781 32.9714 3.91798 33.0184 3.78201C33.0653 3.64605 33.1671 3.58329 33.3028 3.56237C33.3942 3.5493 33.4829 3.53622 33.5716 3.52315C34.4171 3.39502 35.26 3.25906 36.1055 3.14139C36.283 3.11786 36.3691 3.04464 36.4395 2.88775C36.8571 1.98826 37.2824 1.09139 37.7052 0.191899C37.7652 0.0637737 37.8565 -0.0068258 38.0027 0.00101859C38.1488 -0.0094406 38.2427 0.0611589 38.3002 0.189284C38.6055 0.840368 38.9108 1.49145 39.2161 2.13992C39.3544 2.43801 39.4953 2.7361 39.6336 3.03418C39.6545 3.08125 39.6806 3.1074 39.738 3.11524C40.1921 3.18061 40.6436 3.25644 41.095 3.32442C41.6248 3.40548 42.1545 3.48131 42.6842 3.56237C42.7991 3.58067 42.9061 3.61728 42.9609 3.73233C42.9687 3.75064 42.9843 3.75587 43 3.75848Z" fill="#FDC114"/>
<path d="M54 3.75848V4.01212C53.9322 4.03042 53.9217 4.10363 53.88 4.14547C53.5303 4.49847 53.1832 4.85408 52.8335 5.20969C52.4656 5.58622 52.095 5.96275 51.7271 6.33929C51.7166 6.34974 51.7088 6.35759 51.701 6.36805C51.6827 6.38635 51.6801 6.40465 51.6827 6.4308C51.7245 6.67659 51.7636 6.92238 51.8053 7.16556C51.868 7.53948 51.9306 7.91078 51.988 8.28469C52.0428 8.62985 52.0898 8.975 52.1498 9.31754C52.1942 9.56333 52.2777 9.80912 52.0272 9.99739H51.774C51.7688 9.9477 51.7218 9.94509 51.6905 9.92679C51.4687 9.80389 51.2469 9.68622 51.0251 9.56333C50.558 9.30446 50.0882 9.04298 49.6211 8.78412C49.415 8.66907 49.2088 8.5514 49.0027 8.43635C48.9661 8.45727 48.9296 8.4808 48.8931 8.49911C47.9928 8.99853 47.0898 9.50057 46.1895 10H46.033C45.8112 9.89018 45.772 9.80128 45.8112 9.55287C45.9703 8.56971 46.1243 7.58654 46.2913 6.60338C46.32 6.43603 46.2757 6.33667 46.1634 6.22423C45.4771 5.5287 44.796 4.82793 44.1149 4.12717C44.0184 4.02781 43.9714 3.91798 44.0184 3.78201C44.0653 3.64605 44.1671 3.58329 44.3028 3.56237C44.3942 3.5493 44.4829 3.53622 44.5716 3.52315C45.4171 3.39502 46.26 3.25906 47.1055 3.14139C47.283 3.11786 47.3691 3.04464 47.4395 2.88775C47.8571 1.98826 48.2824 1.09139 48.7052 0.191899C48.7652 0.0637737 48.8565 -0.0068258 49.0027 0.00101859C49.1488 -0.0094406 49.2427 0.0611589 49.3002 0.189284C49.6055 0.840368 49.9108 1.49145 50.2161 2.13992C50.3544 2.43801 50.4953 2.7361 50.6336 3.03418C50.6545 3.08125 50.6806 3.1074 50.738 3.11524C51.1921 3.18061 51.6436 3.25644 52.095 3.32442C52.6248 3.40548 53.1545 3.48131 53.6842 3.56237C53.7991 3.58067 53.9061 3.61728 53.9609 3.73233C53.9687 3.75064 53.9843 3.75587 54 3.75848Z" fill="#FDC114"/>
</svg>
