<svg width="27" height="26" viewBox="0 0 27 26" fill="none" xmlns="http://www.w3.org/2000/svg">
<path d="M14.2341 19.9337C11.8062 19.9337 9.37821 19.9395 6.95024 19.9315C5.42933 19.9264 4.29425 18.7429 4.33262 17.2241C4.3623 16.0384 5.28383 14.9836 6.48261 14.7947C6.69688 14.7607 6.69688 14.6847 6.65851 14.5211C5.66749 10.3239 4.6772 6.12673 3.69414 1.92738C3.6565 1.76813 3.59786 1.72904 3.44584 1.73048C2.61553 1.737 1.78522 1.73483 0.954904 1.73338C0.38809 1.73193 -0.0064356 1.36709 7.95038e-05 0.854564C0.00659461 0.352901 0.394605 0.00180975 0.95056 0.00108585C2.04293 -0.00036195 3.13457 -0.00036195 4.22693 0.00108585C4.77854 0.00180975 5.0739 0.240697 5.2013 0.780002C5.39386 1.59511 5.598 2.40733 5.77318 3.22606C5.81806 3.43744 5.90493 3.47146 6.09459 3.47146C11.8438 3.46712 17.5937 3.46712 23.343 3.46857C24.5953 3.46857 25.5863 4.22722 25.9143 5.42237C26.0294 5.84151 26.0272 6.26137 25.9287 6.68051C25.3214 9.26628 24.714 11.8521 24.1002 14.4357C23.8034 15.6829 22.7885 16.4669 21.4811 16.4676C16.6881 16.4691 11.8959 16.4684 7.10299 16.4684C6.95024 16.4684 6.79823 16.4633 6.6491 16.5176C6.26761 16.6559 6.028 17.0265 6.06998 17.4268C6.11197 17.8279 6.44931 18.1616 6.85541 18.197C6.95386 18.2057 7.05376 18.2014 7.15294 18.2014C11.964 18.2014 16.7743 18.2007 21.5853 18.2021C22.2759 18.2021 22.724 18.8109 22.4627 19.4023C22.2955 19.7802 21.9849 19.938 21.5723 19.9373C19.1262 19.9315 16.6802 19.9337 14.2341 19.9337ZM6.2553 5.20014C6.26761 5.28338 6.27267 5.34636 6.28715 5.40645C7.00598 8.45552 7.72844 11.5046 8.44003 14.5551C8.48129 14.7332 8.56671 14.7346 8.70208 14.7346C12.9622 14.7332 17.2217 14.7339 21.4818 14.7325C22.0016 14.7325 22.3049 14.4892 22.4243 13.9825C23.0187 11.4684 23.613 8.95356 24.2044 6.43873C24.3876 5.66054 24.0147 5.20014 23.2083 5.20014C17.6488 5.20014 12.0892 5.20014 6.52966 5.20014C6.44279 5.20014 6.35448 5.20014 6.2553 5.20014Z" fill="#C4C4C4"/>
<path d="M12.1319 23.4098C12.1283 24.8497 10.952 26.0079 9.50199 26C8.09256 25.992 6.92925 24.8171 6.93287 23.4033C6.93649 21.9584 8.10414 20.7966 9.54977 20.8002C10.9744 20.8038 12.1355 21.9772 12.1319 23.4098ZM10.3982 23.4091C10.404 22.94 10.0167 22.5412 9.54832 22.5346C9.07417 22.5281 8.67892 22.9067 8.66733 23.378C8.65575 23.8616 9.04738 24.264 9.53095 24.2655C10.0029 24.2662 10.3924 23.8825 10.3982 23.4091Z" fill="#C4C4C4"/>
<path d="M21.665 23.4033C21.6628 24.8453 20.4908 26.0057 19.0415 25.9999C17.6307 25.9949 16.4652 24.8222 16.4659 23.4098C16.4666 21.9642 17.6314 20.7994 19.0763 20.8002C20.5017 20.8009 21.6671 21.9729 21.665 23.4033ZM19.9319 23.4084C19.9377 22.9393 19.5497 22.5404 19.0821 22.5339C18.6079 22.5274 18.2127 22.906 18.2011 23.3773C18.1895 23.8608 18.5811 24.2633 19.0647 24.2648C19.5367 24.2662 19.9254 23.8818 19.9319 23.4084Z" fill="#C4C4C4"/>
</svg>
