<svg width="22" height="17" viewBox="0 0 22 17" fill="none" xmlns="http://www.w3.org/2000/svg">
<path d="M0.000574637 8.03992C0.374089 7.44976 0.756797 6.86651 1.20157 6.32577C2.89847 4.26168 4.94992 2.69177 7.52717 1.90164C10.2854 1.05577 13.0069 1.2092 15.6635 2.34584C15.8278 2.41594 15.9111 2.38721 16.0261 2.26998C16.6892 1.59593 17.3604 0.929354 18.0298 0.261626C18.3556 -0.0630442 18.7671 -0.0871789 19.0573 0.198416C19.3475 0.484011 19.3302 0.90407 19.0084 1.22644C13.9987 6.23728 8.9879 11.2475 3.97706 16.2572C3.65584 16.5785 3.23406 16.5945 2.94961 16.3032C2.66976 16.0165 2.68873 15.6044 3.00076 15.2913C3.57712 14.7126 4.15118 14.1316 4.73616 13.5616C4.8689 13.4323 4.84477 13.3846 4.70283 13.2956C2.86112 12.1354 1.37453 10.6195 0.203422 8.78867C0.135614 8.68294 0.101136 8.55537 0 8.47032C0.000574637 8.32666 0.000574637 8.183 0.000574637 8.03992ZM14.7854 3.49626C14.7613 3.47845 14.7458 3.46121 14.7268 3.45374C12.3691 2.55615 9.98949 2.49524 7.61107 3.33536C5.05738 4.23754 3.11971 5.93674 1.58025 8.12784C1.50727 8.23185 1.52221 8.29391 1.58772 8.38757C2.70769 9.98679 4.0874 11.3073 5.77051 12.306C5.87624 12.3687 5.93141 12.3664 6.01875 12.2767C6.51007 11.7756 7.0054 11.2786 7.50879 10.789C7.62199 10.6792 7.62946 10.6097 7.54211 10.4752C6.31067 8.58755 6.84278 6.02351 8.7477 4.81275C10.2337 3.86805 11.7519 3.88701 13.2575 4.80184C13.3224 4.84149 13.3758 4.92079 13.4724 4.82137C13.9045 4.3766 14.3452 3.9393 14.7854 3.49626ZM10.9876 5.49255C10.8388 5.50979 10.6894 5.52243 10.5411 5.54484C8.74253 5.81492 7.70244 7.89453 8.56152 9.49605C8.62358 9.61212 8.65863 9.63913 8.76494 9.53168C9.9349 8.35482 11.1083 7.18083 12.2857 6.01087C12.3966 5.90112 12.361 5.86434 12.2467 5.80745C11.8502 5.61035 11.433 5.50289 10.9876 5.49255Z" fill="#CECECE"/>
<path d="M17.2937 4.87252C17.604 4.56681 17.9092 4.27432 18.2039 3.97206C18.289 3.88529 18.3378 3.91402 18.4148 3.97378C19.0435 4.46337 19.6279 5.00123 20.1686 5.58622C20.7875 6.25509 21.338 6.97626 21.8299 7.74455C22.054 8.09451 22.0586 8.40941 21.8322 8.75879C20.1094 11.4211 17.8517 13.4363 14.8251 14.4954C12.4708 15.3194 10.0843 15.3395 7.68923 14.6528C7.65533 14.6431 7.6243 14.6247 7.56683 14.5988C7.92828 14.242 8.28053 13.8972 8.62876 13.5484C8.6914 13.4858 8.75633 13.4938 8.82644 13.5087C12.2656 14.2339 15.2785 13.3249 17.9494 11.1217C18.8998 10.3379 19.7101 9.42249 20.4157 8.41286C20.499 8.29333 20.499 8.21748 20.4151 8.09853C19.5923 6.93087 18.6252 5.90169 17.4902 5.03169C17.4299 4.98457 17.3707 4.93458 17.2937 4.87252Z" fill="#CECECE"/>
<path d="M14.9969 7.16705C15.3491 8.78925 14.9796 10.1419 13.8321 11.2562C12.8127 12.2457 11.214 12.6387 9.9458 12.2221C10.2825 11.89 10.6112 11.5739 10.9302 11.2475C11.0882 11.0855 11.2485 10.9844 11.4899 10.9418C12.7041 10.7275 13.5677 9.79371 13.7235 8.57318C13.7315 8.50882 13.7367 8.44504 13.7861 8.39505C14.1763 7.99855 14.5676 7.60205 14.9969 7.16705Z" fill="#CECECE"/>
</svg>
